<svg width="35" height="50" viewBox="0 0 35 50" fill="none" xmlns="http://www.w3.org/2000/svg">
<path d="M33.111 18.285L27.8301 21.2523C27.6065 21.3779 27.4683 21.6146 27.4683 21.8711V35.9551C27.4683 36.2091 27.3329 36.4437 27.1129 36.57L17.5985 42.0528C17.3833 42.1766 17.1193 42.1787 16.9021 42.0588L6.96843 36.5679C6.74233 36.443 6.60199 36.2049 6.60199 35.9465V21.8683C6.60199 21.6131 6.4652 21.3775 6.24405 21.2515L1.05964 18.296C0.586877 18.0267 0 18.3684 0 18.9127V39.4833C0 39.7342 0.13219 39.9663 0.347661 40.094L16.8872 49.901C17.1119 50.034 17.3915 50.033 17.6148 49.8978L33.8243 40.0947C34.037 39.9663 34.1667 39.736 34.1667 39.4876V18.9039C34.1667 18.3617 33.5834 18.0196 33.111 18.285Z" fill="url(#paint0_linear_16_952)"/>
<path d="M16.5569 0.0976279L1.1298 9.1711C0.664833 9.44468 0.662706 10.1168 1.1259 10.3928L6.52472 13.6131C6.75011 13.7479 7.0315 13.7465 7.25583 13.6099L12.4644 10.4354C12.9364 10.1476 13.5417 10.4879 13.5417 11.0415V31.9265C13.5417 35.3522 20.2883 35.1591 20.2883 31.9265V10.9858C20.2883 10.4443 20.8691 10.1026 21.3415 10.3655L27.1929 13.6248C27.4219 13.7522 27.7022 13.743 27.9223 13.6007L32.8611 10.4056C33.3048 10.1182 33.2899 9.46349 32.8338 9.19665L17.2735 0.0969185C17.052 -0.0326011 16.778 -0.0322466 16.5569 0.0976279Z" fill="url(#paint1_linear_16_952)"/>
<defs>
<linearGradient id="paint0_linear_16_952" x1="-1.5027e-06" y1="9.50758" x2="36.9682" y2="11.6038" gradientUnits="userSpaceOnUse">
<stop stop-color="#31A9FF"/>
<stop offset="1" stop-color="#0559F0"/>
</linearGradient>
<linearGradient id="paint1_linear_16_952" x1="16.963" y1="-0.112797" x2="16.963" y2="34.4239" gradientUnits="userSpaceOnUse">
<stop stop-color="#31A9FF"/>
<stop offset="1" stop-color="#0559F0"/>
</linearGradient>
</defs>
</svg>
